<?xml version="1.0" encoding="UTF-8"?><svg xmlns="http://www.w3.org/2000/svg" viewBox="0 0 263.98 263.99"><defs><style>.d{fill:#fff;font-family:Raleway-Bold, Raleway;font-size:31px;}</style></defs><g id="a"/><g id="b"><g id="c"><text class="d" transform="translate(34.33 173.66) rotate(-106.74)"><tspan x="0" y="0">О</tspan></text><text class="d" transform="translate(26.29 144.99) rotate(-89.07)"><tspan x="0" y="0">Ф</tspan></text><text class="d" transform="translate(27.58 112.79) rotate(-73.27)"><tspan x="0" y="0">О</tspan></text><text class="d" transform="translate(37.36 84.33) rotate(-57.98)"><tspan x="0" y="0">Р</tspan></text><text class="d" transform="translate(51.44 62.57) rotate(-42.02)"><tspan x="0" y="0">М</tspan></text><text class="d" transform="translate(76.84 41.26) rotate(-24.91)"><tspan x="0" y="0">И</tspan></text><text class="d" transform="translate(104.9 29.55) rotate(-9.54)"><tspan x="0" y="0">Т</tspan></text><text class="d" transform="translate(130.79 26.1) rotate(4.33)"><tspan x="0" y="0">Е</tspan></text><text class="d" transform="translate(156.59 29.31) rotate(15.45)"><tspan x="0" y="0"> </tspan></text><text class="d" transform="translate(171.24 33.96) rotate(23.87)"><tspan x="0" y="0"> </tspan></text><text class="d" transform="translate(185.05 40.71) rotate(32.24)"><tspan x="0" y="0"> </tspan></text><text class="d" transform="translate(197.56 48.81) rotate(43.33)"><tspan x="0" y="0">З</tspan></text><text class="d" transform="translate(215.4 66.56) rotate(57.47)"><tspan x="0" y="0">А</tspan></text><text class="d" transform="translate(229.48 90.24) rotate(72.5)"><tspan x="0" y="0">Я</tspan></text><text class="d" transform="translate(236.94 116.87) rotate(87.55)"><tspan x="0" y="0">В</tspan></text><text class="d" transform="translate(237.28 144.68) rotate(102.58)"><tspan x="0" y="0">К</tspan></text><text class="d" transform="translate(230.22 171.83) rotate(117.49)"><tspan x="0" y="0">У</tspan></text><text class="d" transform="translate(216.51 195.25) rotate(128.87)"><tspan x="0" y="0"> </tspan></text><text class="d" transform="translate(206.41 206.86) rotate(137.18)"><tspan x="0" y="0"> </tspan></text><text class="d" transform="translate(194.74 216.89) rotate(145.5)"><tspan x="0" y="0"> </tspan></text><text class="d" transform="translate(182.63 225.29) rotate(157.73)"><tspan x="0" y="0">Н</tspan></text><text class="d" transform="translate(154.91 235.68) rotate(174.04)"><tspan x="0" y="0">И</tspan></text><text class="d" transform="translate(125.04 238.57) rotate(-167.38)"><tspan x="0" y="0">Ж</tspan></text><text class="d" transform="translate(87.13 227.96) rotate(-149.84)"><tspan x="0" y="0">Е</tspan></text></g></g></svg>