<?xml version="1.0" encoding="UTF-8"?><svg xmlns="http://www.w3.org/2000/svg" viewBox="0 0 250.98 250.99"><defs><style>.d{fill:#fff;font-family:Raleway-Bold, Raleway;font-size:18px;}</style></defs><g id="a"/><g id="b"><g id="c"><text class="d" transform="translate(23.71 168.11) rotate(-109.18)"><tspan x="0" y="0">О</tspan></text><text class="d" transform="translate(17.98 150.17) rotate(-99.64)"><tspan x="0" y="0">С</tspan></text><text class="d" transform="translate(15.49 132.7) rotate(-90.93)"><tspan x="0" y="0">Т</tspan></text><text class="d" transform="translate(15.52 117.33) rotate(-82.69)"><tspan x="0" y="0">А</tspan></text><text class="d" transform="translate(18.13 100.18) rotate(-73.58)"><tspan x="0" y="0">В</tspan></text><text class="d" transform="translate(23.52 83.5) rotate(-64.62)"><tspan x="0" y="0">Ь</tspan></text><text class="d" transform="translate(31.05 68.59) rotate(-55.98)"><tspan x="0" y="0">Т</tspan></text><text class="d" transform="translate(40.61 55.14) rotate(-47.52)"><tspan x="0" y="0">Е</tspan></text><text class="d" transform="translate(52.02 43.45) rotate(-40.75)"><tspan x="0" y="0"> </tspan></text><text class="d" transform="translate(59.56 37.13) rotate(-33.96)"><tspan x="0" y="0">З</tspan></text><text class="d" transform="translate(72.97 28.5) rotate(-25.33)"><tspan x="0" y="0">А</tspan></text><text class="d" transform="translate(88.83 21.45) rotate(-16.22)"><tspan x="0" y="0">Я</tspan></text><text class="d" transform="translate(105.69 16.99) rotate(-7.09)"><tspan x="0" y="0">В</tspan></text><text class="d" transform="translate(123.13 15.24) rotate(1.95)"><tspan x="0" y="0">К</tspan></text><text class="d" transform="translate(140.78 16.28) rotate(10.89)"><tspan x="0" y="0">У</tspan></text><text class="d" transform="translate(157.35 20.04) rotate(17.92)"><tspan x="0" y="0"> </tspan></text><text class="d" transform="translate(166.65 23.11) rotate(25.42)"><tspan x="0" y="0">Н</tspan></text><text class="d" transform="translate(183.25 31.48) rotate(35.2)"><tspan x="0" y="0">И</tspan></text><text class="d" transform="translate(198.55 42.55) rotate(46.37)"><tspan x="0" y="0">Ж</tspan></text><text class="d" transform="translate(214.76 60.79) rotate(56.82)"><tspan x="0" y="0">Е</tspan></text><text class="d" transform="translate(223.26 74.74) rotate(63.64)"><tspan x="0" y="0"> </tspan></text><text class="d" transform="translate(227.55 83.52) rotate(71.18)"><tspan x="0" y="0">О</tspan></text><text class="d" transform="translate(233.16 101.49) rotate(80.72)"><tspan x="0" y="0">С</tspan></text><text class="d" transform="translate(235.51 119.04) rotate(89.07)"><tspan x="0" y="0">Т</tspan></text><text class="d" transform="translate(235.42 134.35) rotate(97.67)"><tspan x="0" y="0">А</tspan></text><text class="d" transform="translate(232.7 151.49) rotate(106.79)"><tspan x="0" y="0">В</tspan></text><text class="d" transform="translate(227.21 168.14) rotate(115.75)"><tspan x="0" y="0">Ь</tspan></text><text class="d" transform="translate(219.58 183) rotate(124.39)"><tspan x="0" y="0">Т</tspan></text><text class="d" transform="translate(209.94 196.37) rotate(132.83)"><tspan x="0" y="0">Е</tspan></text><text class="d" transform="translate(198.45 208) rotate(139.61)"><tspan x="0" y="0"> </tspan></text><text class="d" transform="translate(190.87 214.27) rotate(146.41)"><tspan x="0" y="0">З</tspan></text><text class="d" transform="translate(177.41 222.81) rotate(155.03)"><tspan x="0" y="0">А</tspan></text><text class="d" transform="translate(161.5 229.76) rotate(164.14)"><tspan x="0" y="0">Я</tspan></text><text class="d" transform="translate(144.61 234.12) rotate(173.28)"><tspan x="0" y="0">В</tspan></text><text class="d" transform="translate(127.16 235.76) rotate(-177.69)"><tspan x="0" y="0">К</tspan></text><text class="d" transform="translate(109.53 234.61) rotate(-168.75)"><tspan x="0" y="0">У</tspan></text><text class="d" transform="translate(92.99 230.75) rotate(-161.72)"><tspan x="0" y="0"> </tspan></text><text class="d" transform="translate(83.71 227.62) rotate(-154.22)"><tspan x="0" y="0">Н</tspan></text><text class="d" transform="translate(67.14 219.14) rotate(-144.43)"><tspan x="0" y="0">И</tspan></text><text class="d" transform="translate(51.91 207.97) rotate(-133.27)"><tspan x="0" y="0">Ж</tspan></text><text class="d" transform="translate(35.82 189.63) rotate(-122.82)"><tspan x="0" y="0">Е</tspan></text></g></g></svg>