<?xml version="1.0" encoding="UTF-8"?><svg xmlns="http://www.w3.org/2000/svg" viewBox="0 0 127 127"><defs><style>.d{fill:#f24347;}.e{fill:#fff;}</style></defs><g id="a"/><g id="b"><g id="c"><rect class="d" x="0" y="0" width="127" height="127" rx="63.5" ry="63.5"/><g><path class="e" d="M17.45,52.23c0-8.92,6.78-16.24,15.69-16.24,4.36,0,8.14,1.64,10.86,4.6l-3.54,3.54c-.82,.82-2.14,1.09-3.23,.27-1.36-.54-2.73-1.09-4.36-1.09-4.32,0-7.83,3.5-7.83,7.87s3.23,8.68,8.1,8.68c1.36,0,3-.58,4.09-1.13,1.09-.82,2.41-.54,3.23,.27l3.54,3.54c-2.73,3-6.78,4.59-11.37,4.59-8.18,0-15.19-6.78-15.19-14.91Z"/><path class="e" d="M59.66,37.74l.04-.04c.39-.97,1.36-1.67,2.49-1.67s2.06,.66,2.49,1.6l13.79,29.48-.08,.04h-7.63l-3-6.42h-11.1l-3,6.42h-7.71l13.71-29.4Zm4.83,16l-2.26-4.95-2.3,4.95h4.56Z"/><path class="e" d="M82.36,54.02c0-1.48,1.25-2.73,2.73-2.73h8.88c2.26,0,4.05-1.83,3.93-4.09-.08-2.14-1.91-3.78-4.01-3.78h-11.53v-7.4h11.49c6.23,0,11.53,5.06,11.49,11.29,0,4.52-2.65,8.37-6.5,10.16l9.66,9.66h-10.28l-8.45-8.45v8.45h-7.4v-13.12Z"/><path class="e" d="M16.96,73.2h2.36c.76,0,1.36,.6,1.36,1.36v4.58h6.04v-5.94h2.36c.74,0,1.36,.6,1.36,1.36v14.21h-3.72v-5.94h-6.04v5.94h-3.72v-15.58Z"/><path class="e" d="M39.72,74.07l.02-.02c.19-.49,.68-.84,1.25-.84s1.03,.33,1.25,.8l6.89,14.74-.04,.02h-3.82l-1.5-3.21h-5.55l-1.5,3.21h-3.86l6.85-14.7Zm2.41,8l-1.13-2.47-1.15,2.47h2.28Z"/><path class="e" d="M51.07,73.2h2.92c.39,0,.78,.18,1.03,.47l8.16,9.48v-9.95h2.34c.76,0,1.36,.6,1.36,1.36v14.21h-3.74l-8.37-9.73v9.73h-3.7v-15.58Z"/><path class="e" d="M74.22,76.89h-4.91v-3.7h12.15c.76,0,1.36,.62,1.36,1.36v2.34h-4.91v11.88h-3.7v-11.88Z"/><path class="e" d="M85.26,73.2h7.92c.74,0,1.36,.6,1.36,1.36v2.34h-5.59v2.24h5.59v3.7h-5.59v2.24h5.59v3.7h-9.29v-15.58Z"/><path class="e" d="M97.46,82.21c0-.74,.62-1.36,1.36-1.36h4.44c1.13,0,2.02-.92,1.97-2.04-.04-1.07-.95-1.89-2.01-1.89h-5.76v-3.7h5.74c3.12,0,5.76,2.53,5.74,5.65,0,2.26-1.32,4.19-3.25,5.08l4.83,4.83h-5.14l-4.22-4.22v4.22h-3.7v-6.56Z"/></g></g></g></svg>