<svg xmlns="http://www.w3.org/2000/svg" viewBox="0 0 130.98 33.72"><defs><style>.cls-1{fill:#190e0c;}</style></defs><g id="Слой_2" data-name="Слой 2"><g id="Слой_1-2" data-name="Слой 1"><path class="cls-1" d="M96,12.67h14.33a1.48,1.48,0,0,1,1,.43,1.43,1.43,0,0,1,.42,1v.47A1.43,1.43,0,0,1,110.35,16H106a1.11,1.11,0,0,0-1.11,1.11V32a1.43,1.43,0,0,1-1.44,1.43h-.48A1.43,1.43,0,0,1,101.5,32V17.13a1.11,1.11,0,0,0-.33-.78,1.1,1.1,0,0,0-.79-.33H96a1.42,1.42,0,0,1-1-.43,1.4,1.4,0,0,1-.43-1v-.47A1.47,1.47,0,0,1,96,12.67m-15,17.4H89.4a1.48,1.48,0,0,1,1,.43,1.45,1.45,0,0,1,.42,1V32a1.43,1.43,0,0,1-1.44,1.44H78A1.47,1.47,0,0,1,76.59,32V14.14A1.47,1.47,0,0,1,78,12.7H89.4a1.45,1.45,0,0,1,1.44,1.44v.47a1.45,1.45,0,0,1-.42,1,1.48,1.48,0,0,1-1,.42H81.05a1.1,1.1,0,0,0-.78.32,1.08,1.08,0,0,0-.33.79v3.11a1.11,1.11,0,0,0,.33.78,1.07,1.07,0,0,0,.78.33H84.7a1.4,1.4,0,0,1,1,.43,1.44,1.44,0,0,1,.43,1v.48a1.44,1.44,0,0,1-.43,1,1.43,1.43,0,0,1-1,.42H81.05a1.1,1.1,0,0,0-.78.32,1.08,1.08,0,0,0-.33.79V29a1.11,1.11,0,0,0,.33.78A1.07,1.07,0,0,0,81.05,30.07ZM61.26,21.48l5.93-8.2a1.66,1.66,0,0,1,.51-.44,1.49,1.49,0,0,1,.66-.15h1.06a1.43,1.43,0,0,1,1.44,1.43V32a1.43,1.43,0,0,1-1.44,1.43h-.35A1.43,1.43,0,0,1,67.63,32V21.49a1.07,1.07,0,0,0-.21-.65,1.13,1.13,0,0,0-.55-.4,1.06,1.06,0,0,0-.68,0,1.09,1.09,0,0,0-.56.39L61.5,26.25a1.48,1.48,0,0,1-.51.42,1.46,1.46,0,0,1-.63.14,1.5,1.5,0,0,1-.64-.14,1.48,1.48,0,0,1-.51-.42L56.12,22.2,55.25,21l-.13-.17a1.1,1.1,0,0,0-.56-.4,1.09,1.09,0,0,0-.69,0,1,1,0,0,0-.55.4,1.12,1.12,0,0,0-.21.65V32a1.43,1.43,0,0,1-1.44,1.43h-.32a1.41,1.41,0,0,1-1-.42,1.4,1.4,0,0,1-.43-1V14.12a1.45,1.45,0,0,1,1.44-1.43h1a1.45,1.45,0,0,1,.66.15,1.43,1.43,0,0,1,.51.44l5.9,8.2a1.09,1.09,0,0,0,.91.47,1.27,1.27,0,0,0,.51-.12A1.18,1.18,0,0,0,61.26,21.48Zm63.9,8.09H117a1.11,1.11,0,0,0-.62.19,1.08,1.08,0,0,0-.4.51L115,32.5a1.4,1.4,0,0,1-1.33.89h-.21a1.45,1.45,0,0,1-.68-.16,1.52,1.52,0,0,1-.51-.47,1.41,1.41,0,0,1-.14-1.34l7.17-17.83a1.48,1.48,0,0,1,.52-.66,1.54,1.54,0,0,1,.81-.24h1.7a1.4,1.4,0,0,1,.8.24,1.45,1.45,0,0,1,.53.66l7.17,17.83a1.51,1.51,0,0,1,.1.69,1.46,1.46,0,0,1-.76,1.12,1.38,1.38,0,0,1-.67.16h-.22A1.43,1.43,0,0,1,128,32.5l-.9-2.23a1.11,1.11,0,0,0-1-.7Zm-5.92-3.35h4.56a1.11,1.11,0,0,0,.92-.49,1.1,1.1,0,0,0,.19-.5,1.13,1.13,0,0,0-.08-.54l-2.28-5.64a1.15,1.15,0,0,0-.41-.51,1.1,1.1,0,0,0-.62-.18,1.13,1.13,0,0,0-.63.18,1.15,1.15,0,0,0-.41.51l-2.27,5.64a1.13,1.13,0,0,0-.08.54,1.1,1.1,0,0,0,.19.5,1,1,0,0,0,.4.36A1,1,0,0,0,119.24,26.22Zm-80-22A6.9,6.9,0,0,0,34,4.11a6.56,6.56,0,0,0-2.27,1.42,6.75,6.75,0,0,0-1.56,2.19,6.89,6.89,0,0,0,1.26,7.55,6.86,6.86,0,0,0,2.19,1.56,7,7,0,0,0,2.63.61A6.82,6.82,0,0,0,38.9,17L39,17a6.89,6.89,0,0,0,3.75-3.58A7,7,0,0,0,42.9,8.1l0-.08a6.8,6.8,0,0,0-1.42-2.23A7,7,0,0,0,39.28,4.26ZM32.72.69A10.41,10.41,0,0,1,36.77,0a10.79,10.79,0,0,1,4,.93,10.46,10.46,0,0,1,5.53,5.88l.12.32a10.53,10.53,0,0,1-.36,7.75,10.48,10.48,0,0,1-5.63,5.43L35.27,29.2a1.8,1.8,0,0,1-1.11.85,1.82,1.82,0,0,1-2.24-1.3,1.78,1.78,0,0,1,.19-1.38l2.67-4.6a1.32,1.32,0,0,0,.19-.59,1.46,1.46,0,0,0-.11-.61,1.43,1.43,0,0,0-.36-.5,1.48,1.48,0,0,0-.56-.28l-.21-.05-.22-.06a1,1,0,0,0-.6,0,1,1,0,0,0-.45.4L25.65,32.81a1.87,1.87,0,0,1-1.11.85,1.8,1.8,0,0,1-1.39-.19h0A1.83,1.83,0,0,1,22.48,31l6.81-11.7a.92.92,0,0,0,.12-.6.89.89,0,0,0-.28-.53L29,18l-.18-.18a1.31,1.31,0,0,0-.51-.34,1.42,1.42,0,0,0-.62-.07,1.44,1.44,0,0,0-.58.21,1.3,1.3,0,0,0-.42.45L24,22.63a1.83,1.83,0,0,1-2.46.69l0,0a1.83,1.83,0,0,1-.69-2.46L26,11.91A11,11,0,0,1,26,9a10.89,10.89,0,0,1,.82-2.82,10.7,10.7,0,0,1,2.39-3.35A10.31,10.31,0,0,1,32.72.69ZM10.65,26.3l6.1,3.83a1.25,1.25,0,0,1,.41.38,1.43,1.43,0,0,1,.23.52,1.52,1.52,0,0,1,0,.56,1.4,1.4,0,0,1-.21.53l-.25.39A1.45,1.45,0,0,1,15,33L5.05,26.72a1.18,1.18,0,0,0-.56-.17,1.07,1.07,0,0,0-.57.14,1,1,0,0,0-.42.41,1.08,1.08,0,0,0-.16.57V32a1.43,1.43,0,0,1-1.43,1.43H1.44A1.43,1.43,0,0,1,0,32V14.12a1.43,1.43,0,0,1,1.44-1.43h.47a1.43,1.43,0,0,1,1.43,1.43v7a1.09,1.09,0,0,0,.14.54,1,1,0,0,0,.38.4l.85.53,1.21.75a1,1,0,0,0,.42.17,1.15,1.15,0,0,0,.45,0,1.4,1.4,0,0,0,.41-.19,1.26,1.26,0,0,0,.29-.35l5.41-9.59a1.36,1.36,0,0,1,.36-.43,1.8,1.8,0,0,1,.5-.25,1.53,1.53,0,0,1,.56,0,1.38,1.38,0,0,1,.54.18l.45.26a1.41,1.41,0,0,1,.64.86A1.39,1.39,0,0,1,15.82,15l-5.55,9.84a1.08,1.08,0,0,0-.11.82A1.13,1.13,0,0,0,10.65,26.3Z"/></g></g></svg>