<?xml version="1.0" encoding="UTF-8"?><svg xmlns="http://www.w3.org/2000/svg" viewBox="0 0 130.94 33.73"><defs><style>.f{fill:#121212;}</style></defs><g id="a"/><g id="b"><g id="c"><g id="d"><g id="e"><path class="f" d="M96,12.67h14.33c.38,.01,.73,.16,1,.43,.27,.27,.42,.62,.42,1v.47c0,.78-.62,1.41-1.4,1.43h-4.35c-.61,0-1.11,.5-1.11,1.11h0v14.89c0,.79-.64,1.43-1.43,1.43h-.49c-.79,.02-1.45-.6-1.47-1.39,0-.01,0-.03,0-.04v-14.87c0-.29-.12-.57-.33-.78-.21-.21-.49-.33-.79-.33h-4.38c-.38,0-.74-.16-1-.43-.27-.26-.43-.62-.43-1v-.47c.01-.79,.64-1.43,1.43-1.45m-15,17.4h8.4c.38,.01,.73,.16,1,.43,.26,.27,.41,.62,.42,1v.5c0,.79-.63,1.43-1.42,1.44,0,0-.01,0-.02,0h-11.38c-.78-.03-1.39-.66-1.41-1.44V14.14c.02-.78,.63-1.41,1.41-1.44h11.4c.79,0,1.43,.65,1.44,1.44v.47c0,.38-.16,.73-.42,1-.27,.26-.63,.41-1,.42h-8.37c-.29,0-.57,.11-.78,.32-.21,.21-.33,.49-.33,.79v3.11c0,.29,.12,.57,.33,.78,.2,.21,.49,.33,.78,.33h3.65c.38,0,.74,.16,1,.43,.27,.26,.42,.62,.43,1v.48c0,.38-.16,.74-.43,1-.27,.27-.62,.42-1,.42h-3.65c-.29,0-.57,.11-.78,.32-.21,.21-.33,.49-.33,.79v3.2c0,.29,.12,.57,.33,.78,.21,.2,.49,.3,.78,.29h-.05Zm-19.74-8.59l5.93-8.2c.14-.18,.31-.33,.51-.44,.21-.1,.43-.15,.66-.15h1.06c.79,0,1.43,.63,1.44,1.42h0v17.89c0,.79-.64,1.43-1.43,1.43h-.36c-.79,0-1.43-.63-1.44-1.42h0v-10.52c0-.23-.07-.46-.21-.65-.14-.19-.33-.33-.55-.4-.22-.07-.46-.07-.68,0-.22,.07-.42,.2-.56,.39l-4.13,5.42c-.14,.18-.31,.32-.51,.42-.2,.09-.41,.14-.63,.14-.22,0-.44-.05-.64-.14-.2-.1-.37-.24-.51-.42l-3.09-4.05-.87-1.2-.13-.17c-.14-.19-.34-.33-.56-.4-.22-.07-.47-.07-.69,0-.22,.06-.42,.21-.55,.4-.14,.19-.21,.42-.21,.65v10.52c0,.79-.64,1.43-1.43,1.43h-.33c-.38,0-.74-.15-1-.42-.27-.26-.43-.62-.43-1V14.12c.01-.79,.65-1.42,1.44-1.43h1c.23,0,.45,.05,.66,.15,.2,.1,.38,.25,.51,.44l5.9,8.2c.21,.3,.55,.47,.91,.47,.18,0,.35-.04,.51-.12,.16-.08,.3-.2,.41-.35Zm63.9,8.09h-8.16c-.22,0-.44,.07-.62,.19-.18,.13-.32,.3-.4,.51l-.98,2.23c-.21,.55-.74,.9-1.33,.89h-.21c-.24,0-.47-.05-.68-.16-.2-.12-.38-.28-.51-.47-.27-.39-.32-.9-.14-1.34l7.17-17.83c.11-.27,.29-.49,.52-.66,.24-.15,.52-.24,.81-.24h1.7c.28,0,.56,.08,.8,.24,.24,.16,.42,.39,.53,.66l7.17,17.83c.09,.22,.12,.46,.1,.69-.05,.48-.34,.89-.76,1.12-.21,.11-.44,.16-.67,.16h-.22c-.57-.02-1.07-.37-1.28-.89l-.9-2.23c-.16-.41-.56-.69-1-.7h-.94Zm-5.92-3.35h4.56c.37,0,.71-.18,.92-.49,.1-.15,.17-.32,.19-.5,.02-.18,0-.37-.08-.54l-2.28-5.64c-.08-.21-.23-.38-.41-.51-.18-.12-.4-.18-.62-.18-.22,0-.44,.06-.63,.18-.18,.13-.33,.3-.41,.51l-2.27,5.64c-.07,.17-.1,.36-.08,.54,.02,.18,.09,.35,.19,.5,.1,.15,.24,.28,.4,.36,.16,.09,.34,.13,.52,.13ZM39.24,4.22c-1.66-.72-3.55-.76-5.24-.11-.85,.31-1.62,.8-2.27,1.42-.66,.62-1.19,1.36-1.56,2.19-1.15,2.54-.65,5.52,1.26,7.55,.62,.66,1.36,1.19,2.19,1.56,.83,.37,1.72,.58,2.63,.61,.9,.03,1.8-.12,2.65-.44h.1c1.67-.66,3.01-1.94,3.75-3.58,.75-1.68,.8-3.6,.15-5.32v-.08c-.32-.83-.81-1.59-1.42-2.23-.63-.65-1.37-1.17-2.2-1.53l-.04-.04Zm-6.52-3.53C34.01,.2,35.39-.04,36.77,0c1.38,.05,2.74,.37,4,.93,2.56,1.14,4.55,3.26,5.53,5.88l.12,.32c.87,2.53,.74,5.31-.36,7.75-1.11,2.47-3.12,4.41-5.63,5.43l-5.16,8.89c-.24,.42-.64,.73-1.11,.85-.97,.26-1.97-.31-2.23-1.28v-.02c-.13-.47-.06-.96,.18-1.38l2.67-4.6c.11-.18,.17-.38,.19-.59,0-.21-.03-.42-.11-.61-.08-.19-.21-.36-.36-.5-.16-.13-.36-.23-.56-.28l-.21-.05-.22-.06c-.2-.06-.4-.06-.6,0-.19,.08-.34,.22-.45,.4l-6.81,11.73c-.25,.42-.64,.72-1.11,.85-.47,.13-.97,.06-1.39-.19h0c-.86-.5-1.16-1.6-.67-2.47l6.81-11.7c.11-.18,.15-.39,.12-.6-.03-.2-.13-.39-.28-.53l-.13-.17-.18-.18c-.14-.15-.32-.27-.51-.34-.2-.07-.41-.09-.62-.07-.21,.03-.4,.1-.58,.21-.17,.11-.32,.27-.42,.45l-2.69,4.56c-.5,.86-1.59,1.17-2.46,.69h0c-.86-.5-1.17-1.59-.69-2.46l5.15-8.95c-.13-.97-.13-1.94,0-2.91,.14-.97,.42-1.92,.82-2.82,.57-1.26,1.38-2.4,2.39-3.35,1.01-.94,2.21-1.67,3.51-2.14ZM10.65,26.3l6.1,3.83c.16,.09,.3,.22,.41,.38,.11,.16,.19,.33,.23,.52,.03,.19,.03,.37,0,.56-.03,.19-.1,.37-.21,.53l-.25,.39c-.41,.65-1.26,.86-1.93,.49l-9.95-6.28c-.17-.1-.36-.16-.56-.17-.2,0-.4,.04-.57,.14-.18,.09-.32,.23-.42,.41-.11,.17-.16,.37-.16,.57v4.33c0,.79-.64,1.43-1.43,1.43h-.47c-.79,0-1.43-.63-1.44-1.42H0V14.12c0-.79,.64-1.43,1.43-1.43h.48c.79,0,1.43,.64,1.43,1.43h0v7c0,.19,.05,.38,.14,.54,.09,.17,.22,.3,.38,.4l.85,.53,1.21,.75c.13,.09,.27,.15,.42,.17,.15,.03,.3,.03,.45,0,.15-.04,.28-.1,.41-.19,.12-.1,.22-.22,.29-.35l5.41-9.59c.09-.17,.21-.31,.36-.43,.15-.11,.32-.19,.5-.25,.19-.03,.37-.03,.56,0,.19,.02,.37,.08,.54,.18l.45,.26c.32,.19,.55,.5,.64,.86,.08,.34,.04,.69-.13,1l-5.55,9.84c-.14,.25-.18,.54-.11,.82,.08,.27,.25,.49,.49,.64Z"/></g></g></g></g></svg>